<svg width="18" height="18" viewBox="0 0 18 18" fill="none" xmlns="http://www.w3.org/2000/svg">
<path fill-rule="evenodd" clip-rule="evenodd" d="M12.1895 0.567123C12.5527 0.203995 13.0453 0 13.5589 0C14.0725 0 14.5651 0.203995 14.9284 0.567123L17.4329 3.07165C17.796 3.43489 18 3.92748 18 4.4411C18 4.95472 17.796 5.44731 17.4329 5.81054L15.8968 7.34658L10.6534 2.10315L12.1895 0.567123ZM9.28398 3.4726L0.567537 12.189C0.204256 12.5522 0.000109706 13.0448 0 13.5585V16.063C0 16.5767 0.204075 17.0694 0.56733 17.4327C0.930586 17.7959 1.42327 18 1.93699 18H4.44151C4.95519 17.9999 5.44779 17.7957 5.81096 17.4325L14.5274 8.71602L9.28398 3.4726Z" fill="#C2C2C2"/>
</svg>
