<svg width="117" height="86" viewBox="0 0 117 86" fill="none" xmlns="http://www.w3.org/2000/svg">
<path d="M39.1948 0.135353C37.0227 0.615604 35.0908 1.82714 33.8356 3.48619C33.2244 4.29389 32.4604 5.8547 32.2202 6.83703C31.9583 7.84119 31.8819 9.50024 32.0347 10.4935C32.2966 12.0761 32.7441 13.124 34.0757 15.2742C34.5233 15.9945 34.8834 16.5839 34.8834 16.6058C34.8834 16.6276 33.6501 16.6603 32.1438 16.6822C29.4151 16.7149 29.4042 16.7149 29.1968 16.9769C28.9458 17.2825 28.9349 17.6208 29.1641 17.9483C29.3278 18.1884 29.3387 18.1884 32.635 18.1884C35.6475 18.1884 35.9531 18.2102 36.1059 18.374C36.2915 18.5923 39.1402 22.6307 39.8933 23.744C40.1553 24.1261 40.4609 24.5299 40.57 24.6391C40.7774 24.8464 40.7774 24.8464 40.5591 25.0647C40.3518 25.2721 40.3408 25.4249 40.3408 29.5289V33.7638L38.1906 33.8293C36.5097 33.873 35.8439 33.9385 35.2 34.1022C32.3294 34.8662 30.0591 37.1256 29.2405 40.018C29.0768 40.6074 29.044 41.1422 29.044 43.1833C29.044 45.4536 29.0659 45.7046 29.2951 46.4577C29.7644 47.9421 30.3538 48.9245 31.4453 50.005C32.5586 51.1183 33.2681 51.5768 34.6324 52.0679L35.5929 52.4063L58.5031 52.439L81.4023 52.4609L80.9002 53.0066C80.6273 53.3013 80.3981 53.6397 80.3981 53.7488C80.3981 54.1199 80.8129 54.5347 81.1949 54.5347C81.4787 54.5347 81.7188 54.3491 82.7666 53.3013C83.7599 52.3081 84 52.0134 84 51.7514C84 51.5004 83.7599 51.2057 82.7557 50.1906C81.6752 49.0991 81.4678 48.9354 81.1622 48.9354C80.7474 48.9354 80.3981 49.2737 80.3981 49.6885C80.3981 49.8522 80.5837 50.1578 80.8456 50.4416L81.3041 50.9328H76.0431C71.2079 50.9328 70.5202 50.9 70.8913 50.6599C70.9459 50.6272 71.0878 50.2561 71.186 49.8413L71.3825 49.0773H73.2053C74.908 49.0773 75.028 49.0664 75.2245 48.8481C75.421 48.6298 75.4319 48.3896 75.4319 44.1765C75.4319 38.9483 75.5847 39.5923 73.7401 37.0601L72.5176 35.3792L74.9626 35.3137C77.1892 35.2591 77.462 35.2373 78.237 34.9754C80.8238 34.1131 82.6684 32.2685 83.5852 29.638L83.9454 28.612V26.1016C83.9454 23.3075 83.869 22.8381 83.1814 21.4083C82.3519 19.7056 81.0639 18.4176 79.3612 17.5881C77.4184 16.6603 78.8373 16.7258 62.094 16.6603L47.239 16.6058L48.003 15.4051C48.9308 13.9426 49.6621 12.4581 49.8913 11.5959C50.4698 9.32561 50.2515 7.00076 49.2691 5.03609C48.0903 2.68941 45.951 0.921219 43.4516 0.233585C42.4911 -0.0283699 40.1662 -0.082943 39.1948 0.135353ZM42.9167 1.70708C44.3575 2.06727 45.2743 2.6021 46.4095 3.72632C47.7629 5.07975 48.4069 6.3677 48.6361 8.23413C48.8544 9.90409 48.4724 11.5195 47.4682 13.3204C46.6059 14.8594 41.2904 22.6417 41.094 22.6635C41.0066 22.6635 37.0118 16.9878 35.8439 15.1868C35.331 14.401 34.7416 13.4514 34.5233 13.0585C32.6896 9.74037 33.3117 5.80013 36.0513 3.3443C36.8154 2.66758 38.3871 1.8708 39.3585 1.66342C40.4282 1.43421 41.9017 1.44513 42.9167 1.70708ZM76.3487 18.2976C77.6039 18.4395 78.5208 18.7669 79.4704 19.4109C80.4854 20.0876 81.1622 20.8407 81.7079 21.9213C82.3737 23.242 82.5047 24.0606 82.4501 26.4073C82.3846 28.6557 82.2536 29.2778 81.5223 30.5112C80.7256 31.8428 79.6123 32.7815 78.0514 33.4255L77.2874 33.742L74.3295 33.7747L71.3716 33.8075L70.7276 32.9234C70.3019 32.3231 69.9308 31.9301 69.5925 31.7446L69.1013 31.4499L65.4885 31.4171C61.9521 31.3844 61.8757 31.3844 61.5919 31.6136C61.3082 31.8319 61.2972 31.8974 61.2972 32.8251V33.7966H60.3695H59.4417V29.6053C59.4417 25.5341 59.4308 25.414 59.2125 25.1302L58.9942 24.8464H50.2078H41.4214L41.7379 24.4317C41.9126 24.2134 42.9713 22.7181 44.1064 21.1027L46.1475 18.1884H60.7952C69.5161 18.1884 75.803 18.2321 76.3487 18.2976ZM46.5623 28.9395V31.5154L46.8351 31.7773L47.0971 32.0502H49.8695C52.4999 32.0502 52.6418 32.0393 52.871 31.8319C53.1002 31.6136 53.1111 31.5372 53.1111 28.9941V26.3745H55.5124H57.9137V34.3969V42.4193H49.8913H41.8689V34.3969V26.3745H44.2156H46.5623V28.9395ZM51.5831 28.4483V30.5221H49.8367H48.0903V28.4483V26.3745H49.8367H51.5831V28.4483ZM68.8066 33.0653C69.145 33.2508 73.7074 39.5377 73.8492 40.018C73.9038 40.2254 73.9584 41.3933 73.9584 42.6048V44.8205H73.3581H72.7578V45.5736V46.3377L73.3363 46.3704L73.9038 46.4031L73.9366 46.9707L73.9693 47.5492H72.4958H71.0332L70.804 47.189C69.7125 45.4317 67.1476 45.017 65.6195 46.3595C65.3575 46.5996 65.0301 46.9598 64.8991 47.1672L64.659 47.5492H63.7421H62.8253V40.2363V32.9234H65.6959C67.7588 32.9234 68.6211 32.967 68.8066 33.0653ZM40.319 38.8938L40.3408 42.4193H39.162C37.4484 42.4193 37.5576 42.19 37.5576 45.7483C37.5576 48.4115 37.5685 48.6298 37.7649 48.8481C37.9614 49.0664 38.0815 49.0773 40.068 49.0773H42.1636L42.24 49.5357C42.2837 49.7867 42.4037 50.2015 42.5238 50.4635L42.7312 50.9328H39.5768C36.1168 50.9328 35.6802 50.8782 34.4796 50.3325C32.4931 49.4265 31.1178 47.702 30.6703 45.5736C30.4084 44.3512 30.5066 40.9676 30.8231 40.0944C31.4453 38.3917 32.5586 37.0273 33.9339 36.2633C35.2873 35.5102 36.1496 35.3465 38.5945 35.3683L40.2863 35.3792L40.319 38.8938ZM61.2754 38.8938L61.2972 42.4193H60.3695H59.4417V38.8719V35.3137L60.3477 35.3465L61.2427 35.3792L61.2754 38.8938ZM61.2972 45.7483V47.5492H55.0758H48.8544L48.5924 47.1344C48.2104 46.545 47.7847 46.1739 47.0862 45.8574C46.344 45.5191 45.318 45.4754 44.4885 45.7483C43.8991 45.9447 42.9386 46.7306 42.6766 47.2327L42.5129 47.5492H40.7774H39.0311V45.7483V43.9473H50.1642H61.2972V45.7483ZM46.7697 47.4073C47.4573 47.9203 47.752 48.728 47.5555 49.492C47.1408 51.0201 45.2525 51.4458 44.1938 50.2452C43.2333 49.1537 43.8445 47.4182 45.2962 47.1126C45.7546 47.0253 46.4204 47.1563 46.7697 47.4073ZM68.8394 47.3637C69.9636 48.1168 70.0946 49.5029 69.145 50.4089C68.0426 51.4567 66.2089 50.8455 65.9251 49.3392C65.7723 48.5424 66.1543 47.7784 66.9184 47.32C67.3986 47.0144 68.3591 47.0362 68.8394 47.3637ZM64.397 49.5357C64.4407 49.7867 64.5608 50.2015 64.6808 50.4635L64.8882 50.9328H56.7567C52.2925 50.9328 48.6361 50.911 48.6361 50.8782C48.6361 50.8346 48.7125 50.6708 48.7998 50.4962C48.8871 50.3216 49.0181 49.9286 49.0836 49.623L49.2036 49.0773H56.7676H64.3206L64.397 49.5357Z" fill="#FAFAFA"/>
<path d="M39.6424 3.08214C39.4896 3.24586 39.3586 3.48598 39.3586 3.62788C39.3586 3.7916 39.2604 3.93349 39.0639 4.03172C38.802 4.17361 38.7256 4.17361 38.3545 3.97715C37.7542 3.66062 37.4376 3.78068 36.5972 4.63204C35.7567 5.48339 35.6476 5.76717 35.9532 6.35657C36.1497 6.73859 36.1606 6.81499 36.0187 7.08786C35.9096 7.28433 35.7677 7.38256 35.6039 7.38256C35.462 7.38256 35.2219 7.51354 35.0582 7.66635C34.7853 7.93922 34.7744 8.01562 34.7744 9.09619C34.7744 10.1549 34.7962 10.2422 35.0473 10.5042C35.1892 10.6461 35.462 10.7989 35.6367 10.8316C36.0951 10.9299 36.2152 11.3228 35.9423 11.8795C35.6476 12.4798 35.7677 12.7745 36.6299 13.6258C37.4595 14.4444 37.7105 14.5208 38.42 14.1825C38.7692 14.0188 38.8129 14.0188 39.0748 14.1934C39.2276 14.2916 39.3586 14.4663 39.3586 14.5863C39.3586 14.6955 39.4787 14.9356 39.6206 15.0993C39.8716 15.394 39.9371 15.4049 40.9631 15.4377C42 15.4813 42.0655 15.4704 42.382 15.1976C42.5785 15.0338 42.764 14.761 42.7968 14.5754C42.895 14.1279 43.3316 13.9533 43.7464 14.1934C44.3467 14.5536 44.6741 14.4335 45.5473 13.5712C46.4096 12.6981 46.5296 12.3706 46.1695 11.7703C45.9293 11.3555 46.104 10.919 46.5515 10.8207C46.737 10.788 47.0099 10.6024 47.1736 10.406C47.4465 10.0894 47.4574 10.0239 47.4137 8.98704C47.381 7.96105 47.3701 7.89556 47.0754 7.64452C46.9117 7.50263 46.6715 7.38256 46.5624 7.38256C46.4423 7.38256 46.2677 7.25159 46.1695 7.09878C45.9948 6.83682 45.9948 6.79316 46.1585 6.44389C46.4969 5.73443 46.4205 5.48339 45.6128 4.65387C44.7505 3.78068 44.4122 3.6497 43.8337 3.95532C43.3098 4.25002 42.895 4.10813 42.7968 3.60605C42.6767 2.96207 42.3274 2.79835 41.0504 2.79835C39.9917 2.79835 39.9153 2.80927 39.6424 3.08214ZM41.4324 4.5338C41.4324 4.89399 41.7926 5.17778 42.6658 5.52705C43.4735 5.84358 43.5281 5.84358 43.9101 5.69077C44.2703 5.53796 44.3249 5.53796 44.4995 5.70169C44.685 5.87632 44.685 5.90907 44.5213 6.18194C44.303 6.55304 44.3794 6.97872 44.8488 7.9283C45.1435 8.5177 45.2526 8.64868 45.5582 8.72508C45.8529 8.79057 45.9075 8.85606 45.9075 9.12893C45.9075 9.4018 45.8638 9.45637 45.6565 9.45637C45.3181 9.45637 45.0234 9.80565 44.6741 10.6352C44.3358 11.421 44.3139 11.7266 44.5322 12.0323C44.6741 12.2178 44.6632 12.2615 44.4667 12.4798C44.2594 12.6981 44.2157 12.709 44.0083 12.5671C43.6918 12.3379 43.3971 12.3597 42.6112 12.6981C41.7817 13.0473 41.4324 13.342 41.4324 13.6804C41.4324 13.8878 41.3779 13.9314 41.1159 13.9314C40.8649 13.9314 40.7885 13.8659 40.7121 13.5712C40.6357 13.2875 40.4938 13.1565 39.9044 12.8727C38.9657 12.4034 38.54 12.327 38.158 12.5453C37.8742 12.7199 37.8524 12.709 37.6777 12.5234C37.5031 12.327 37.5031 12.2942 37.6668 11.9668C37.8415 11.6175 37.8415 11.5848 37.4922 10.6897C37.1429 9.78382 36.881 9.45637 36.499 9.45637C36.1824 9.45637 36.2261 8.83423 36.5535 8.736C36.9683 8.61593 37.1429 8.37581 37.5031 7.49171C37.8415 6.66219 37.8415 6.61853 37.6777 6.26925C37.514 5.94181 37.514 5.90907 37.6996 5.72352C37.8851 5.53796 37.9179 5.53796 38.2344 5.69077C38.5618 5.85449 38.6164 5.84358 39.4459 5.52705C40.341 5.18869 40.592 4.99222 40.7121 4.56655C40.8212 4.25002 41.4324 4.21727 41.4324 4.5338Z" fill="#FAFAFA"/>
<path d="M40.2311 5.88765C38.7467 6.30241 37.7971 7.5467 37.7971 9.07477C37.7862 10.1117 38.1028 10.8102 38.8886 11.5306C40.9188 13.3861 44.1605 12.0982 44.3569 9.34764C44.4224 8.34347 44.1823 7.65584 43.4947 6.90272C42.6433 5.97497 41.3554 5.57112 40.2311 5.88765ZM42.0539 7.61218C42.5778 7.93963 42.8834 8.59451 42.818 9.27123C42.7415 10.1553 42.1303 10.7666 41.2462 10.843C39.609 11.0067 38.6812 9.11842 39.7727 7.88505C40.3185 7.27383 41.3117 7.15376 42.0539 7.61218Z" fill="#FAFAFA"/>
<path d="M52.5645 38.2721V39.0361H54.5291H56.4938V38.2721V37.5081H54.5291H52.5645V38.2721Z" fill="#FAFAFA"/>
<path d="M52.5645 40.4542V41.2183H54.5291H56.4938V40.4542V39.6902H54.5291H52.5645V40.4542Z" fill="#FAFAFA"/>
<path d="M63.4144 33.5891C63.2179 33.8074 63.207 34.0257 63.207 37.1473V40.4764L63.469 40.6837C63.7091 40.8802 63.9602 40.8911 68.3042 40.8911H72.8775L73.1395 40.6182C73.4451 40.3235 73.4778 40.1162 73.2814 39.7669C73.0958 39.4176 69.1665 34.0148 68.85 33.6546L68.5662 33.3599H66.0995C63.72 33.3599 63.6109 33.3708 63.4144 33.5891ZM69.2647 36.7653C70.0179 37.8022 70.7382 38.8064 70.8801 39.0029L71.1312 39.363H67.9004H64.6805V37.1255V34.888H66.2959H67.9004L69.2647 36.7653Z" fill="#FAFAFA"/>
<path d="M63.938 42.2778L63.9708 43.02L64.9313 43.0527L65.8809 43.0854V42.3105V41.5465H64.8985H63.9053L63.938 42.2778Z" fill="#FAFAFA"/>
<path d="M45.1755 48.3678C44.5643 48.8044 44.9136 49.8413 45.6776 49.8413C46.0596 49.8413 46.4525 49.4156 46.4525 49.0118C46.4525 48.3351 45.7431 47.9749 45.1755 48.3678Z" fill="#FAFAFA"/>
<path d="M67.3333 48.3681C67.0167 48.5864 66.9294 49.0121 67.1259 49.3941C67.617 50.3437 68.9705 49.667 68.5557 48.6846C68.3483 48.1935 67.7917 48.0407 67.3333 48.3681Z" fill="#FAFAFA"/>
<path d="M9.64844 70.2866C9.41341 69.1548 8.98047 68.2765 8.34961 67.6519C7.72493 67.0272 6.97347 66.7148 6.09521 66.7148C5.23551 66.7148 4.56755 66.9189 4.09131 67.3271C3.62126 67.7354 3.38623 68.2796 3.38623 68.96C3.38623 69.3372 3.42025 69.6496 3.48828 69.897C3.55632 70.1444 3.69548 70.3856 3.90576 70.6206C4.11605 70.8494 4.4222 71.0535 4.82422 71.2329C5.22624 71.4061 5.75195 71.5731 6.40137 71.7339C6.75391 71.8205 7.06006 71.9009 7.31982 71.9751C7.58577 72.0493 7.87646 72.1514 8.19189 72.2812C8.51351 72.4111 8.78874 72.5503 9.01758 72.6987C9.2526 72.8472 9.48454 73.0327 9.71338 73.2554C9.9484 73.4718 10.137 73.7131 10.2793 73.979C10.4277 74.245 10.5452 74.5604 10.6318 74.9253C10.7246 75.284 10.771 75.6768 10.771 76.1035C10.771 76.6725 10.6659 77.1982 10.4556 77.6807C10.2453 78.1569 9.97005 78.5589 9.62988 78.8867C9.28971 79.2145 8.89697 79.4928 8.45166 79.7217C8.00635 79.9505 7.55485 80.1175 7.09717 80.2227C6.63949 80.3278 6.1849 80.3804 5.7334 80.3804C4.36035 80.3804 2.89762 80.0247 1.34521 79.3135C1.37614 78.6455 1.3916 78.2342 1.3916 78.0796C1.3916 77.0715 1.30811 76.0664 1.14111 75.0645C1.20915 75.0212 1.27718 74.9995 1.34521 74.9995C1.4318 74.9995 1.50911 75.0212 1.57715 75.0645C1.70703 75.8623 1.92041 76.5674 2.21729 77.1797C2.52035 77.792 2.8667 78.2775 3.25635 78.6362C3.646 78.9888 4.04801 79.2547 4.4624 79.4341C4.88298 79.6073 5.30664 79.6938 5.7334 79.6938C6.70443 79.6938 7.44971 79.4434 7.96924 78.9424C8.49495 78.4352 8.75781 77.7673 8.75781 76.9385C8.75781 76.1035 8.56299 75.4757 8.17334 75.0552C7.78988 74.6284 7.05387 74.2821 5.96533 74.0161C4.60465 73.6759 3.54085 73.175 2.77393 72.5132C2.01318 71.8452 1.63281 70.9639 1.63281 69.8691C1.63281 69.2939 1.72559 68.7806 1.91113 68.3291C2.10286 67.8714 2.34717 67.5065 2.64404 67.2344C2.9471 66.9561 3.29964 66.7272 3.70166 66.5479C4.10368 66.3623 4.49951 66.2355 4.88916 66.1675C5.28499 66.0933 5.68701 66.0562 6.09521 66.0562C7.31982 66.0562 8.59391 66.3407 9.91748 66.9097C9.88037 67.2746 9.86182 67.6549 9.86182 68.0508C9.86182 68.9785 9.93604 69.7238 10.0845 70.2866C10.0041 70.3175 9.93604 70.333 9.88037 70.333C9.81852 70.333 9.74121 70.3175 9.64844 70.2866ZM19.8906 75.083H14.8345C14.8097 75.4541 14.7974 75.7819 14.7974 76.0664C14.8159 76.988 15.085 77.7271 15.6045 78.2837C16.124 78.8341 16.8198 79.1094 17.6919 79.1094C17.9269 79.1094 18.1465 79.0846 18.3506 79.0352C18.5547 78.9795 18.7217 78.9176 18.8516 78.8496C18.9876 78.7816 19.1268 78.6826 19.269 78.5527C19.4113 78.4229 19.5133 78.3208 19.5752 78.2466C19.6432 78.1662 19.7329 78.0487 19.8442 77.894C19.9556 77.7332 20.0298 77.6312 20.0669 77.5879C20.2153 77.6188 20.3359 77.6868 20.4287 77.792C20.1195 78.6208 19.6401 79.2424 18.9907 79.6567C18.3413 80.0649 17.6362 80.269 16.8755 80.269C16.4982 80.269 16.1302 80.2196 15.7715 80.1206C15.4189 80.0278 15.0757 79.8732 14.7417 79.6567C14.4077 79.4403 14.117 79.1743 13.8696 78.8589C13.6222 78.5373 13.4243 78.1383 13.2759 77.6621C13.1274 77.1797 13.0532 76.6478 13.0532 76.0664C13.0532 74.7614 13.4521 73.6852 14.25 72.8379C15.0479 71.9906 16.0282 71.5669 17.1909 71.5669C17.7043 71.5669 18.1496 71.6411 18.5269 71.7896C18.9103 71.9318 19.2072 72.1266 19.4175 72.374C19.634 72.6214 19.7917 72.8936 19.8906 73.1904C19.9958 73.4811 20.0483 73.7935 20.0483 74.1274C20.0483 74.4367 19.9958 74.7552 19.8906 75.083ZM16.9683 72.1699C16.5415 72.1699 16.1364 72.3586 15.7529 72.7358C15.3757 73.1131 15.1035 73.6852 14.9365 74.4521H18.2764C18.3382 74.2171 18.3691 74.013 18.3691 73.8398C18.3691 73.3574 18.2578 72.9585 18.0352 72.6431C17.8125 72.3276 17.4569 72.1699 16.9683 72.1699ZM21.8945 72.3647C23.0944 72.241 24.1396 71.9875 25.0303 71.604C25.1849 71.6659 25.2931 71.7463 25.355 71.8452V73.4409C25.5838 73.008 25.924 72.5874 26.3755 72.1792C26.8332 71.771 27.3094 71.5669 27.8042 71.5669C28.1753 71.5669 28.4753 71.6782 28.7041 71.9009C28.9391 72.1174 29.0566 72.4173 29.0566 72.8008C29.0566 73.1657 28.9484 73.4502 28.7319 73.6543C28.5155 73.8584 28.2433 73.9604 27.9155 73.9604C27.6125 73.9604 27.362 73.8646 27.1641 73.6729C26.9723 73.4749 26.8672 73.2152 26.8486 72.8936C26.5889 73.0049 26.292 73.2523 25.958 73.6357C25.6302 74.0192 25.4292 74.3996 25.355 74.7769C25.355 76.1561 25.3797 77.4735 25.4292 78.729C25.4354 78.8898 25.4941 79.029 25.6055 79.1465C25.7168 79.2578 25.8807 79.3444 26.0972 79.4062C26.3136 79.4681 26.493 79.5145 26.6353 79.5454C26.7775 79.5701 26.9631 79.5949 27.1919 79.6196C27.229 79.6938 27.2476 79.7712 27.2476 79.8516C27.2476 79.9134 27.229 79.9814 27.1919 80.0557C26.2642 80.0186 25.3457 80 24.4365 80C23.682 80 22.8965 80.0186 22.0801 80.0557C22.0553 79.9567 22.043 79.8887 22.043 79.8516C22.043 79.8206 22.0553 79.7433 22.0801 79.6196C22.2842 79.5949 22.4512 79.5701 22.5811 79.5454C22.7109 79.5145 22.8717 79.4681 23.0635 79.4062C23.2552 79.3444 23.4006 79.2578 23.4995 79.1465C23.5985 79.029 23.651 78.8898 23.6572 78.729C23.682 78.1167 23.6943 77.3745 23.6943 76.5024C23.6943 76.2118 23.6912 75.717 23.6851 75.0181C23.6789 74.3192 23.6758 73.7069 23.6758 73.1812C23.3232 72.9647 22.7295 72.8379 21.8945 72.8008C21.8698 72.7018 21.8574 72.6245 21.8574 72.5688C21.8574 72.5317 21.8698 72.4637 21.8945 72.3647ZM29.1958 71.771C30.0122 71.8081 30.8348 71.8267 31.6636 71.8267C32.3625 71.8267 33.1108 71.8081 33.9087 71.771C33.9334 71.87 33.9458 71.9473 33.9458 72.0029C33.9458 72.04 33.9334 72.1081 33.9087 72.207C33.7355 72.2194 33.5933 72.2349 33.4819 72.2534C33.3768 72.2658 33.2438 72.2905 33.083 72.3276C32.9222 72.3647 32.8016 72.4204 32.7212 72.4946C32.6408 72.5688 32.6006 72.6585 32.6006 72.7637C32.6006 72.8193 32.6253 72.9338 32.6748 73.1069L34.3633 77.792H34.4189L36.395 73.1069C36.4631 72.9399 36.4971 72.807 36.4971 72.708C36.4971 72.4235 36.1414 72.2565 35.4302 72.207C35.4054 72.1081 35.3931 72.04 35.3931 72.0029C35.3931 71.9473 35.4054 71.87 35.4302 71.771C36.1538 71.8081 36.6022 71.8267 36.7754 71.8267C37.2949 71.8267 37.9536 71.8081 38.7515 71.771C38.7762 71.8452 38.7886 71.9102 38.7886 71.9658C38.7886 72.0029 38.7762 72.0833 38.7515 72.207C38.0155 72.238 37.5145 72.5379 37.2485 73.1069L34.0757 80.269H33.6211L30.8101 73.1069C30.7482 72.9461 30.6554 72.8101 30.5317 72.6987C30.4142 72.5812 30.2596 72.4915 30.0679 72.4297C29.8823 72.3617 29.737 72.3153 29.6318 72.2905C29.5329 72.2658 29.3875 72.238 29.1958 72.207C29.1711 72.1576 29.1587 72.0895 29.1587 72.0029C29.1587 71.9102 29.1711 71.8328 29.1958 71.771ZM39.3174 72.3647C40.5173 72.241 41.5625 71.9875 42.4531 71.604C42.6077 71.6659 42.716 71.7463 42.7778 71.8452C42.7778 75.0552 42.8026 77.3498 42.8521 78.729C42.8582 78.8898 42.9046 79.029 42.9912 79.1465C43.084 79.2578 43.2139 79.3444 43.3809 79.4062C43.5479 79.4681 43.687 79.5145 43.7983 79.5454C43.9097 79.5701 44.055 79.5949 44.2344 79.6196C44.2715 79.6938 44.29 79.7712 44.29 79.8516C44.29 79.932 44.2715 80 44.2344 80.0557C43.418 80.0186 42.6263 80 41.8594 80C41.1048 80 40.3193 80.0186 39.5029 80.0557C39.4782 79.9567 39.4658 79.8887 39.4658 79.8516C39.4658 79.8206 39.4782 79.7433 39.5029 79.6196C39.707 79.5949 39.874 79.5701 40.0039 79.5454C40.1338 79.5145 40.2946 79.4681 40.4863 79.4062C40.6781 79.3444 40.8234 79.2578 40.9224 79.1465C41.0213 79.029 41.0739 78.8898 41.0801 78.729C41.1048 78.1167 41.1172 77.3745 41.1172 76.5024C41.1172 76.2118 41.1141 75.717 41.1079 75.0181C41.1017 74.3192 41.0986 73.7069 41.0986 73.1812C40.7461 72.9647 40.1523 72.8379 39.3174 72.8008C39.2926 72.7018 39.2803 72.6245 39.2803 72.5688C39.2803 72.5317 39.2926 72.4637 39.3174 72.3647ZM40.7739 68.4868C40.7739 68.1714 40.8853 67.9023 41.1079 67.6797C41.3368 67.457 41.6058 67.3457 41.915 67.3457C42.2305 67.3457 42.4995 67.457 42.7222 67.6797C42.9448 67.9023 43.0562 68.1714 43.0562 68.4868C43.0562 68.7961 42.9448 69.0651 42.7222 69.2939C42.4995 69.5166 42.2305 69.6279 41.915 69.6279C41.6058 69.6279 41.3368 69.5166 41.1079 69.2939C40.8853 69.0651 40.7739 68.7961 40.7739 68.4868ZM53.0571 77.5879C53.2056 77.6188 53.3262 77.6868 53.4189 77.792C53.1097 78.6208 52.6304 79.2424 51.981 79.6567C51.3315 80.0649 50.6265 80.269 49.8657 80.269C49.4884 80.269 49.1204 80.2196 48.7617 80.1206C48.403 80.0278 48.0535 79.8732 47.7134 79.6567C47.3794 79.4403 47.0856 79.1743 46.832 78.8589C46.5846 78.5373 46.3836 78.1383 46.229 77.6621C46.0806 77.1797 46.0063 76.6478 46.0063 76.0664C46.0063 74.7243 46.4176 73.6388 47.2402 72.8101C48.0628 71.9813 49.0895 71.5669 50.3203 71.5669C51.1862 71.5669 51.8913 71.7555 52.4355 72.1328C52.986 72.5039 53.2612 72.9801 53.2612 73.5615C53.2612 73.8893 53.153 74.1615 52.9365 74.3779C52.7201 74.5944 52.4541 74.7026 52.1387 74.7026C51.8047 74.7026 51.5356 74.6068 51.3315 74.415C51.1274 74.2171 51.0254 73.9883 51.0254 73.7285C51.0254 73.2585 51.2635 72.9616 51.7397 72.8379C51.6965 72.6956 51.5573 72.5503 51.3223 72.4019C51.0872 72.2472 50.7533 72.1699 50.3203 72.1699C50.0977 72.1699 49.8874 72.1978 49.6895 72.2534C49.4915 72.3029 49.2782 72.4111 49.0493 72.5781C48.8267 72.7451 48.6349 72.9647 48.4741 73.2368C48.3195 73.509 48.1896 73.8893 48.0845 74.3779C47.9793 74.8604 47.9268 75.4232 47.9268 76.0664C47.9268 76.4993 47.9701 76.8921 48.0566 77.2446C48.1494 77.5972 48.2917 77.9157 48.4834 78.2002C48.6751 78.4847 48.938 78.7074 49.272 78.8682C49.606 79.029 49.9987 79.1094 50.4502 79.1094C50.7347 79.1094 51.0037 79.0723 51.2573 78.998C51.5109 78.9176 51.715 78.8341 51.8696 78.7476C52.0304 78.661 52.2005 78.5311 52.3799 78.3579C52.5654 78.1785 52.6891 78.0518 52.751 77.9775C52.8128 77.8971 52.9149 77.7673 53.0571 77.5879ZM61.9727 75.083H56.9165C56.8918 75.4541 56.8794 75.7819 56.8794 76.0664C56.8979 76.988 57.167 77.7271 57.6865 78.2837C58.2061 78.8341 58.9019 79.1094 59.7739 79.1094C60.009 79.1094 60.2285 79.0846 60.4326 79.0352C60.6367 78.9795 60.8037 78.9176 60.9336 78.8496C61.0697 78.7816 61.2088 78.6826 61.3511 78.5527C61.4933 78.4229 61.5954 78.3208 61.6572 78.2466C61.7253 78.1662 61.8149 78.0487 61.9263 77.894C62.0376 77.7332 62.1118 77.6312 62.1489 77.5879C62.2974 77.6188 62.418 77.6868 62.5107 77.792C62.2015 78.6208 61.7222 79.2424 61.0728 79.6567C60.4233 80.0649 59.7183 80.269 58.9575 80.269C58.5802 80.269 58.2122 80.2196 57.8535 80.1206C57.501 80.0278 57.1577 79.8732 56.8237 79.6567C56.4897 79.4403 56.1991 79.1743 55.9517 78.8589C55.7043 78.5373 55.5063 78.1383 55.3579 77.6621C55.2095 77.1797 55.1353 76.6478 55.1353 76.0664C55.1353 74.7614 55.5342 73.6852 56.332 72.8379C57.1299 71.9906 58.1102 71.5669 59.2729 71.5669C59.7863 71.5669 60.2316 71.6411 60.6089 71.7896C60.9924 71.9318 61.2892 72.1266 61.4995 72.374C61.716 72.6214 61.8737 72.8936 61.9727 73.1904C62.0778 73.4811 62.1304 73.7935 62.1304 74.1274C62.1304 74.4367 62.0778 74.7552 61.9727 75.083ZM59.0503 72.1699C58.6235 72.1699 58.2184 72.3586 57.835 72.7358C57.4577 73.1131 57.1855 73.6852 57.0186 74.4521H60.3584C60.4202 74.2171 60.4512 74.013 60.4512 73.8398C60.4512 73.3574 60.3398 72.9585 60.1172 72.6431C59.8945 72.3276 59.5389 72.1699 59.0503 72.1699ZM64.7373 66.3623C65.4115 66.387 66.2526 66.4056 67.2607 66.418C68.2689 66.4303 69.4533 66.4365 70.814 66.4365C72.1746 66.4365 73.359 66.4303 74.3672 66.418C75.3815 66.4056 76.2288 66.387 76.9092 66.3623C76.9463 66.6283 76.9927 66.8849 77.0483 67.1323C77.104 67.3735 77.1968 67.6426 77.3267 67.9395L77.605 68.5703L78.2822 69.8877C78.2389 69.9867 78.1307 70.0701 77.9575 70.1382C77.7472 69.7485 77.4906 69.3774 77.1875 69.0249C76.8844 68.6724 76.4979 68.3538 76.0278 68.0693C75.564 67.7848 74.995 67.5467 74.3208 67.355C73.6528 67.1632 72.8457 67.0334 71.8994 66.9653C71.8685 67.7384 71.8438 68.6136 71.8252 69.5908C71.8128 70.5618 71.8066 71.6442 71.8066 72.8379C71.8066 74.0378 71.8128 75.1263 71.8252 76.1035C71.8438 77.0807 71.8685 77.9559 71.8994 78.729C71.9056 78.8774 71.9644 79.0042 72.0757 79.1094C72.187 79.2083 72.3385 79.2918 72.5303 79.3599C72.7282 79.4279 72.9539 79.4836 73.2075 79.5269C73.4673 79.564 73.7456 79.5949 74.0425 79.6196C74.0672 79.7248 74.0796 79.8083 74.0796 79.8701C74.0796 79.9258 74.0672 79.9876 74.0425 80.0557C73.0034 80.0186 71.9272 80 70.814 80C69.7069 80 68.6307 80.0186 67.5854 80.0557C67.5607 79.9876 67.5483 79.9258 67.5483 79.8701C67.5483 79.8083 67.5607 79.7248 67.5854 79.6196L68.0308 79.5732C68.1916 79.5547 68.3709 79.5299 68.5688 79.499C68.7668 79.4619 68.9492 79.4124 69.1162 79.3506C69.2894 79.2887 69.4347 79.2114 69.5522 79.1187C69.6698 79.0259 69.7285 78.9115 69.7285 78.7754V78.729C69.7594 77.5972 69.7842 76.5426 69.8027 75.5654C69.8213 74.5882 69.8306 73.679 69.8306 72.8379C69.8306 72.0029 69.8213 71.0999 69.8027 70.1289C69.7842 69.1517 69.7594 68.0972 69.7285 66.9653C68.8379 67.0148 68.0617 67.1354 67.3999 67.3271C66.7443 67.5127 66.1753 67.7477 65.6929 68.0322C65.2104 68.3105 64.8084 68.6322 64.4868 68.9971C64.1652 69.3558 63.8993 69.7362 63.689 70.1382C63.5158 70.0701 63.4076 69.9867 63.3643 69.8877L63.7817 69.0991L63.9766 68.7002C64.057 68.5332 64.1374 68.3631 64.2178 68.1899C64.2982 68.0168 64.3724 67.8374 64.4404 67.6519C64.5146 67.4601 64.5765 67.2591 64.626 67.0488C64.6755 66.8324 64.7126 66.6035 64.7373 66.3623ZM79.0801 72.3647C80.2799 72.241 81.3252 71.9875 82.2158 71.604C82.3704 71.6659 82.4787 71.7463 82.5405 71.8452V73.4409C82.7694 73.008 83.1095 72.5874 83.561 72.1792C84.0187 71.771 84.495 71.5669 84.9897 71.5669C85.3608 71.5669 85.6608 71.6782 85.8896 71.9009C86.1247 72.1174 86.2422 72.4173 86.2422 72.8008C86.2422 73.1657 86.134 73.4502 85.9175 73.6543C85.701 73.8584 85.4289 73.9604 85.1011 73.9604C84.798 73.9604 84.5475 73.8646 84.3496 73.6729C84.1579 73.4749 84.0527 73.2152 84.0342 72.8936C83.7744 73.0049 83.4775 73.2523 83.1436 73.6357C82.8158 74.0192 82.6147 74.3996 82.5405 74.7769C82.5405 76.1561 82.5653 77.4735 82.6147 78.729C82.6209 78.8898 82.6797 79.029 82.791 79.1465C82.9023 79.2578 83.0662 79.3444 83.2827 79.4062C83.4992 79.4681 83.6785 79.5145 83.8208 79.5454C83.9631 79.5701 84.1486 79.5949 84.3774 79.6196C84.4146 79.6938 84.4331 79.7712 84.4331 79.8516C84.4331 79.9134 84.4146 79.9814 84.3774 80.0557C83.4497 80.0186 82.5312 80 81.6221 80C80.8675 80 80.082 80.0186 79.2656 80.0557C79.2409 79.9567 79.2285 79.8887 79.2285 79.8516C79.2285 79.8206 79.2409 79.7433 79.2656 79.6196C79.4697 79.5949 79.6367 79.5701 79.7666 79.5454C79.8965 79.5145 80.0573 79.4681 80.249 79.4062C80.4408 79.3444 80.5861 79.2578 80.6851 79.1465C80.784 79.029 80.8366 78.8898 80.8428 78.729C80.8675 78.1167 80.8799 77.3745 80.8799 76.5024C80.8799 76.2118 80.8768 75.717 80.8706 75.0181C80.8644 74.3192 80.8613 73.7069 80.8613 73.1812C80.5088 72.9647 79.915 72.8379 79.0801 72.8008C79.0553 72.7018 79.043 72.6245 79.043 72.5688C79.043 72.5317 79.0553 72.4637 79.0801 72.3647ZM88.3018 73.9048C88.3018 73.2244 88.611 72.6647 89.2295 72.2256C89.8542 71.7865 90.5902 71.5669 91.4375 71.5669C92.4766 71.5669 93.2064 71.7741 93.627 72.1885C94.0537 72.6029 94.2671 73.3018 94.2671 74.2852V78.1353C94.2671 78.4816 94.3939 78.6548 94.6475 78.6548C94.8516 78.6548 95.1113 78.4074 95.4268 77.9126C95.6494 77.9312 95.8009 78.0301 95.8813 78.2095C95.8381 78.2713 95.7638 78.3826 95.6587 78.5435C95.5535 78.7043 95.4762 78.8187 95.4268 78.8867C95.3773 78.9548 95.3 79.0599 95.1948 79.2021C95.0897 79.3382 95.0031 79.4403 94.9351 79.5083C94.8732 79.5763 94.7866 79.6567 94.6753 79.7495C94.5701 79.8423 94.4712 79.9134 94.3784 79.9629C94.2918 80.0062 94.1898 80.0433 94.0723 80.0742C93.9548 80.1113 93.8372 80.1299 93.7197 80.1299C93.4105 80.1299 93.1538 80.0186 92.9497 79.7959C92.7518 79.5732 92.6343 79.23 92.5972 78.7661C92.591 78.7723 92.4951 78.862 92.3096 79.0352C92.124 79.2083 91.9941 79.3258 91.9199 79.3877C91.8519 79.4434 91.7189 79.5454 91.521 79.6938C91.3293 79.8361 91.1654 79.9382 91.0293 80C90.8932 80.0618 90.7231 80.1206 90.519 80.1763C90.3149 80.2381 90.1139 80.269 89.916 80.269C89.6006 80.269 89.3192 80.2257 89.0718 80.1392C88.8306 80.0526 88.6419 79.9474 88.5059 79.8237C88.3698 79.7 88.2585 79.5578 88.1719 79.397C88.0853 79.23 88.0265 79.0785 87.9956 78.9424C87.9709 78.8063 87.9585 78.6702 87.9585 78.5342C87.9585 78.1198 88.0265 77.7703 88.1626 77.4858C88.3049 77.2013 88.5646 76.9354 88.9419 76.688C89.3254 76.4406 89.7954 76.221 90.3521 76.0293C90.9087 75.8376 91.6571 75.6211 92.5972 75.3799V74.0903C92.5972 73.4657 92.458 72.9987 92.1797 72.6895C91.9076 72.3802 91.5396 72.2256 91.0757 72.2256C90.6613 72.2256 90.3118 72.3091 90.0273 72.4761C89.749 72.6369 89.5789 72.8255 89.5171 73.042C90.1232 73.1348 90.4263 73.4657 90.4263 74.0347C90.4263 74.2944 90.3335 74.5233 90.1479 74.7212C89.9624 74.9191 89.7026 75.0181 89.3687 75.0181C89.0903 75.0181 88.8429 74.9222 88.6265 74.7305C88.41 74.5326 88.3018 74.2573 88.3018 73.9048ZM92.5972 77.9126V75.9736C92.0282 76.1035 91.5581 76.2458 91.187 76.4004C90.8159 76.5488 90.5314 76.7127 90.3335 76.8921C90.1418 77.0715 90.0088 77.257 89.9346 77.4487C89.8604 77.6343 89.8232 77.8507 89.8232 78.0981C89.8232 78.4074 89.9129 78.6517 90.0923 78.8311C90.2778 79.0042 90.5036 79.0908 90.7695 79.0908C91.388 79.0908 91.9972 78.6981 92.5972 77.9126ZM104.546 77.5879C104.695 77.6188 104.815 77.6868 104.908 77.792C104.599 78.6208 104.12 79.2424 103.47 79.6567C102.821 80.0649 102.116 80.269 101.355 80.269C100.978 80.269 100.61 80.2196 100.251 80.1206C99.8923 80.0278 99.5428 79.8732 99.2026 79.6567C98.8687 79.4403 98.5749 79.1743 98.3213 78.8589C98.0739 78.5373 97.8729 78.1383 97.7183 77.6621C97.5698 77.1797 97.4956 76.6478 97.4956 76.0664C97.4956 74.7243 97.9069 73.6388 98.7295 72.8101C99.5521 71.9813 100.579 71.5669 101.81 71.5669C102.675 71.5669 103.381 71.7555 103.925 72.1328C104.475 72.5039 104.75 72.9801 104.75 73.5615C104.75 73.8893 104.642 74.1615 104.426 74.3779C104.209 74.5944 103.943 74.7026 103.628 74.7026C103.294 74.7026 103.025 74.6068 102.821 74.415C102.617 74.2171 102.515 73.9883 102.515 73.7285C102.515 73.2585 102.753 72.9616 103.229 72.8379C103.186 72.6956 103.047 72.5503 102.812 72.4019C102.576 72.2472 102.243 72.1699 101.81 72.1699C101.587 72.1699 101.377 72.1978 101.179 72.2534C100.981 72.3029 100.767 72.4111 100.539 72.5781C100.316 72.7451 100.124 72.9647 99.9634 73.2368C99.8088 73.509 99.6789 73.8893 99.5737 74.3779C99.4686 74.8604 99.416 75.4232 99.416 76.0664C99.416 76.4993 99.4593 76.8921 99.5459 77.2446C99.6387 77.5972 99.7809 77.9157 99.9727 78.2002C100.164 78.4847 100.427 78.7074 100.761 78.8682C101.095 79.029 101.488 79.1094 101.939 79.1094C102.224 79.1094 102.493 79.0723 102.747 78.998C103 78.9176 103.204 78.8341 103.359 78.7476C103.52 78.661 103.69 78.5311 103.869 78.3579C104.055 78.1785 104.178 78.0518 104.24 77.9775C104.302 77.8971 104.404 77.7673 104.546 77.5879ZM111.94 79.6196C112.485 79.564 112.757 79.4186 112.757 79.1836C112.757 79.0475 112.689 78.896 112.553 78.729L110.02 75.4819H109.565C109.565 76.9601 109.584 78.0425 109.621 78.729C109.621 78.8898 109.661 79.029 109.742 79.1465C109.828 79.2578 109.952 79.3444 110.113 79.4062C110.28 79.4681 110.416 79.5145 110.521 79.5454C110.632 79.5701 110.778 79.5949 110.957 79.6196C110.994 79.6938 111.013 79.7712 111.013 79.8516C111.013 79.932 110.994 80 110.957 80.0557C110.141 80.0186 109.368 80 108.638 80C107.883 80 107.098 80.0186 106.281 80.0557C106.257 79.9567 106.244 79.8887 106.244 79.8516C106.244 79.8206 106.257 79.7433 106.281 79.6196C106.485 79.5949 106.649 79.5701 106.773 79.5454C106.903 79.5145 107.064 79.4681 107.255 79.4062C107.453 79.3444 107.602 79.2578 107.701 79.1465C107.8 79.029 107.852 78.8898 107.858 78.729C107.883 78.1167 107.892 76.187 107.886 72.9399C107.88 69.6867 107.877 67.8652 107.877 67.4756C107.524 67.2715 106.931 67.1447 106.096 67.0952C106.065 67.0148 106.049 66.9406 106.049 66.8726C106.049 66.8107 106.065 66.7396 106.096 66.6592C107.271 66.5479 108.313 66.2943 109.222 65.8984C109.389 65.9665 109.497 66.05 109.547 66.1489L109.565 74.8882H110.048L111.922 73.1069C112.039 72.9709 112.098 72.8317 112.098 72.6895C112.098 72.4297 111.804 72.2689 111.217 72.207C111.192 72.1081 111.18 72.04 111.18 72.0029C111.18 71.9473 111.192 71.87 111.217 71.771C112.021 71.8081 112.661 71.8267 113.137 71.8267C113.657 71.8267 114.315 71.8081 115.113 71.771C115.138 71.8452 115.15 71.9102 115.15 71.9658C115.15 72.0029 115.138 72.0833 115.113 72.207C114.563 72.2689 114.108 72.3617 113.75 72.4854C113.391 72.6029 113.066 72.8101 112.775 73.1069L111.3 74.6006L114.566 78.729C114.937 79.2114 115.494 79.5083 116.236 79.6196C116.261 79.7433 116.273 79.8268 116.273 79.8701C116.273 79.9196 116.261 79.9814 116.236 80.0557C115.438 80.0186 114.717 80 114.074 80C113.45 80 112.738 80.0186 111.94 80.0557C111.916 79.9567 111.903 79.8825 111.903 79.833C111.903 79.7897 111.916 79.7186 111.94 79.6196Z" fill="white"/>
</svg>
