<svg width="30" height="30" viewBox="0 0 27 27" fill="none" xmlns="http://www.w3.org/2000/svg">
<g clip-path="url(#clip0_27_239)">
<path d="M26.4654 18.9533L24.8451 18.1882C24.62 18.0532 24.3049 18.0532 24.0799 18.1882L14.4029 22.7791C13.8628 23.0492 13.1877 23.0492 12.6476 22.7791L2.9256 18.1882C2.70055 18.0532 2.38548 18.0532 2.16044 18.1882L0.54011 18.9533C-0.180037 19.3134 -0.180037 20.2586 0.54011 20.6187L12.6026 26.3348C13.1427 26.6049 13.8178 26.6049 14.3579 26.3348L26.4204 20.6187C27.1855 20.2586 27.1855 19.2684 26.4654 18.9533Z" fill="#478635"/>
<path d="M26.4654 12.6521L24.8 11.8869C24.575 11.7519 24.2599 11.7519 24.0349 11.8869L14.4029 16.4778C13.8628 16.7479 13.1877 16.7479 12.6476 16.4778L2.9706 11.8869C2.74556 11.7519 2.43049 11.7519 2.20545 11.8869L0.54011 12.6521C-0.180037 13.0121 -0.180037 13.9573 0.54011 14.3174L12.6026 20.0786C13.1427 20.3486 13.8178 20.3486 14.3579 20.0786L26.4204 14.3624C27.1855 14.0023 27.1855 13.0121 26.4654 12.6521Z" fill="#478635"/>
<path d="M0.54011 8.01617L12.6026 13.7323C13.1427 14.0024 13.8178 14.0024 14.3579 13.7323L26.4204 8.01617C27.1405 7.6561 27.1405 6.71091 26.4204 6.35083L14.3579 0.63467C13.8178 0.364615 13.1427 0.364615 12.6026 0.63467L0.54011 6.39584C-0.180037 6.71091 -0.180037 7.70111 0.54011 8.01617Z" fill="#478635"/>
</g>
<defs>
<clipPath id="clip0_27_239">
<rect width="30" height="30" fill="#478635"/>
</clipPath>
</defs>
</svg>
