<svg width="33" height="33" viewBox="0 0 28 28" fill="none" xmlns="http://www.w3.org/2000/svg">
<path d="M14.0003 17.5002C8.84366 17.5002 4.66699 19.5885 4.66699 22.1668V24.5002H23.3337V22.1668C23.3337 19.5885 19.157 17.5002 14.0003 17.5002ZM9.33366 10.5002C9.33366 11.7379 9.82533 12.9248 10.7005 13.8C11.5757 14.6752 12.7626 15.1668 14.0003 15.1668C15.238 15.1668 16.425 14.6752 17.3001 13.8C18.1754 12.9248 18.667 11.7379 18.667 10.5002H9.33366ZM13.417 2.3335C13.067 2.3335 12.8337 2.5785 12.8337 2.91683V6.41683H11.667V3.50016C11.667 3.50016 9.04199 4.5035 9.04199 7.87516C9.04199 7.87516 8.16699 8.0385 8.16699 9.3335H19.8337C19.7753 8.0385 18.9587 7.87516 18.9587 7.87516C18.9587 4.5035 16.3337 3.50016 16.3337 3.50016V6.41683H15.167V2.91683C15.167 2.5785 14.9453 2.3335 14.5837 2.3335H13.417Z" fill="#478635"/>
</svg>
